<?xml version="1.0" standalone="no"?><!DOCTYPE svg PUBLIC "-//W3C//DTD SVG 1.1//EN" "http://www.w3.org/Graphics/SVG/1.1/DTD/svg11.dtd"><svg t="1662518967953" class="icon" viewBox="0 0 1024 1024" version="1.1" xmlns="http://www.w3.org/2000/svg" p-id="3878" xmlns:xlink="http://www.w3.org/1999/xlink" width="200" height="200"><path d="M508 804H244c-90.4 0-164-73.6-164-164s73.6-164 164-164h264c90.4 0 164 73.6 164 164s-73.6 164-164 164z" fill="#C3D2FB" p-id="3879"></path><path d="M692.8 804H498.4C352 804 232 684 232 537.6v-51.2C232 340 352 220 498.4 220 660 220 792 352 792 513.6v191.2c0 54.4-44.8 99.2-99.2 99.2z" fill="#7094F3" p-id="3880"></path><path d="M488 576a228 228 0 1 0 456 0 228 228 0 1 0-456 0z" fill="#386BF3" p-id="3881"></path></svg>